<svg width="35" height="30" viewBox="0 0 35 30" fill="none" xmlns="http://www.w3.org/2000/svg">
<path d="M17.5342 21.9643C16.5771 21.9643 15.8936 22.7009 15.8936 23.5714C15.8936 24.5089 16.6455 25.1786 17.5342 25.1786C18.4229 25.1786 19.1064 24.5089 19.1064 23.5714C19.1748 22.7009 18.4229 21.9643 17.5342 21.9643ZM17.5342 19.2857C18.0811 19.2857 18.5596 18.817 18.5596 18.2143V8.57143C18.5596 8.03571 18.0127 7.5 17.5342 7.5C16.9873 7.5 16.4404 8.03571 16.4404 8.57143V18.2143C16.4404 18.817 16.9189 19.2857 17.5342 19.2857ZM34.4873 24.5089L20.8154 1.875C20.1318 0.736607 18.9014 0.0669643 17.5342 0C16.0986 0 14.8682 0.736607 14.1846 1.875L0.512695 24.5089C-0.170898 25.6473 -0.170898 26.9866 0.512695 28.125C1.19629 29.3304 2.42676 30 3.8623 30H31.2061C32.5732 30 33.8037 29.3304 34.4873 28.125C35.1709 26.9866 35.1709 25.6473 34.4873 24.5089ZM32.5732 27.0536C32.2998 27.5893 31.7529 27.8571 31.1377 27.8571H3.8623C3.24707 27.8571 2.7002 27.5893 2.42676 27.0536C2.08496 26.5848 2.15332 26.0491 2.42676 25.5804L16.0986 2.94643C16.3721 2.47768 16.9189 2.14286 17.5342 2.14286C17.5342 2.14286 17.4658 2.14286 17.5342 2.14286C18.0811 2.20982 18.6279 2.47768 18.9014 2.94643L32.5732 25.5804C32.8467 26.0491 32.915 26.5848 32.5732 27.0536Z" fill="white"/>
</svg>
