<svg width="15" height="13" viewBox="0 0 15 13" fill="none" xmlns="http://www.w3.org/2000/svg">
<path d="M15 7C15 7.28125 14.75 7.5 14.4688 7.5H2.6875L7.0625 12.1875C7.25 12.375 7.25 12.6875 7.03125 12.875C6.9375 12.9688 6.8125 13 6.6875 13C6.53125 13 6.40625 12.9688 6.3125 12.8438L1.125 7.34375C0.9375 7.15625 0.9375 6.875 1.125 6.6875L6.3125 1.1875C6.5 0.96875 6.8125 0.96875 7.03125 1.15625C7.25 1.34375 7.25 1.65625 7.0625 1.84375L2.6875 6.5H14.4688C14.75 6.5 15 6.75 15 7Z" fill="white"/>
</svg>
