<svg width="22" height="23" viewBox="0 0 22 23" fill="none" xmlns="http://www.w3.org/2000/svg">
<path d="M16.2422 1.48047C17.3164 0.363284 19.25 1.13672 19.25 2.6836V19.4844C19.25 21.0313 17.3164 21.8047 16.2422 20.6875L15.2539 19.6133C13.3633 17.6367 10.9141 16.3906 8.25 16.0469V20.3438C8.25 21.6758 7.13281 22.75 5.84375 22.75H5.15625C3.82422 22.75 2.75 21.6758 2.75 20.3438V15.875C1.20312 15.875 0 14.6719 0 13.125V9C0 7.4961 1.20312 6.25 2.75 6.25H6.14453L7.39062 6.20703C10.3984 6.03516 13.1914 4.7461 15.2539 2.55469L16.2422 1.48047ZM17.875 2.6836C17.875 2.33985 17.4883 2.21094 17.2734 2.42578L16.2422 3.5C14.4375 5.39063 12.1172 6.72266 9.625 7.28125V14.8867C12.1172 15.4453 14.4375 16.7344 16.2422 18.668L17.2734 19.7422C17.4883 19.957 17.875 19.7852 17.875 19.4844V2.6836ZM8.25 14.6719V7.4961C7.99219 7.53906 7.73438 7.53906 7.47656 7.58203L6.1875 7.625H2.75C1.97656 7.625 1.375 8.26953 1.375 9V13.125C1.375 13.8984 1.97656 14.5 2.75 14.5H6.1875L7.47656 14.5859C7.73438 14.5859 7.99219 14.6289 8.25 14.6719ZM4.125 15.875V20.3438C4.125 20.9453 4.55469 21.375 5.15625 21.375H5.84375C6.40234 21.375 6.875 20.9453 6.875 20.3438V15.918L6.14453 15.875H4.125ZM21.3125 9C21.6562 9 22 9.34375 22 9.6875V12.4375C22 12.8242 21.6562 13.125 21.3125 13.125C20.9258 13.125 20.625 12.8242 20.625 12.4375V9.6875C20.625 9.34375 20.9258 9 21.3125 9Z" fill="white"/>
</svg>
