<svg width="13" height="15" viewBox="0 0 13 15" fill="none" xmlns="http://www.w3.org/2000/svg">
<path d="M11.3125 2.5H10V1.07812C10 0.914062 9.83594 0.75 9.67188 0.75H9.45312C9.26172 0.75 9.125 0.914062 9.125 1.07812V2.5H3.875V1.07812C3.875 0.914062 3.71094 0.75 3.54688 0.75H3.32812C3.13672 0.75 3 0.914062 3 1.07812V2.5H1.6875C0.949219 2.5 0.375 3.10156 0.375 3.8125V13.4375C0.375 14.1758 0.949219 14.75 1.6875 14.75H11.3125C12.0234 14.75 12.625 14.1758 12.625 13.4375V3.8125C12.625 3.10156 12.0234 2.5 11.3125 2.5ZM1.6875 3.375H11.3125C11.5312 3.375 11.75 3.59375 11.75 3.8125V5.125H1.25V3.8125C1.25 3.59375 1.44141 3.375 1.6875 3.375ZM11.3125 13.875H1.6875C1.44141 13.875 1.25 13.6836 1.25 13.4375V6H11.75V13.4375C11.75 13.6836 11.5312 13.875 11.3125 13.875Z" fill="white"/>
</svg>
