<svg width="12" height="10" viewBox="0 0 12 10" fill="none" xmlns="http://www.w3.org/2000/svg">
<path d="M10.6875 0.875H1.3125C0.785156 0.875 0.375 1.30469 0.375 1.8125V8.6875C0.375 9.21484 0.785156 9.625 1.3125 9.625H10.6875C11.1953 9.625 11.625 9.21484 11.625 8.6875V1.8125C11.625 1.30469 11.1953 0.875 10.6875 0.875ZM1.3125 1.5H10.6875C10.8438 1.5 11 1.65625 11 1.8125V2.75H1V1.8125C1 1.65625 1.13672 1.5 1.3125 1.5ZM10.6875 9H1.3125C1.13672 9 1 8.86328 1 8.6875V4.625H11V8.6875C11 8.86328 10.8438 9 10.6875 9ZM4.125 7.35938C4.125 7.24219 4.00781 7.125 3.89062 7.125H2.48438C2.34766 7.125 2.25 7.24219 2.25 7.35938V7.51562C2.25 7.65234 2.34766 7.75 2.48438 7.75H3.89062C4.00781 7.75 4.125 7.65234 4.125 7.51562V7.35938ZM7.875 7.35938C7.875 7.24219 7.75781 7.125 7.64062 7.125H4.98438C4.84766 7.125 4.75 7.24219 4.75 7.35938V7.51562C4.75 7.65234 4.84766 7.75 4.98438 7.75H7.64062C7.75781 7.75 7.875 7.65234 7.875 7.51562V7.35938Z" fill="#313131"/>
</svg>
