<svg width="23" height="19" viewBox="0 0 23 19" fill="none" xmlns="http://www.w3.org/2000/svg">
<path d="M4 13.875C4 13.5625 4.27344 13.25 4.625 13.25H7.125C7.4375 13.25 7.75 13.5625 7.75 13.875C7.75 14.2266 7.4375 14.5 7.125 14.5H4.625C4.27344 14.5 4 14.2266 4 13.875ZM9 13.875C9 13.5625 9.27344 13.25 9.625 13.25H14.625C14.9375 13.25 15.25 13.5625 15.25 13.875C15.25 14.2266 14.9375 14.5 14.625 14.5H9.625C9.27344 14.5 9 14.2266 9 13.875ZM0.25 3.25C0.25 1.88281 1.34375 0.75 2.75 0.75H20.25C21.6172 0.75 22.75 1.88281 22.75 3.25V15.75C22.75 17.1562 21.6172 18.25 20.25 18.25H2.75C1.34375 18.25 0.25 17.1562 0.25 15.75V3.25ZM1.5 3.25V4.5H21.5V3.25C21.5 2.58594 20.9141 2 20.25 2H2.75C2.04688 2 1.5 2.58594 1.5 3.25ZM1.5 8.25H21.5V5.75H1.5V8.25ZM1.5 9.5V15.75C1.5 16.4531 2.04688 17 2.75 17H20.25C20.9141 17 21.5 16.4531 21.5 15.75V9.5H1.5Z" fill="#DEA5F2"/>
</svg>
