<svg width="23" height="19" viewBox="0 0 23 19" fill="none" xmlns="http://www.w3.org/2000/svg">
<path d="M4 11.375C4 11.0625 4.27344 10.75 4.625 10.75H18.375C18.6875 10.75 19 11.0625 19 11.375C19 11.7266 18.6875 12 18.375 12H4.625C4.27344 12 4 11.7266 4 11.375ZM4 13.875C4 13.5625 4.27344 13.25 4.625 13.25H7.125C7.4375 13.25 7.75 13.5625 7.75 13.875C7.75 14.2266 7.4375 14.5 7.125 14.5H4.625C4.27344 14.5 4 14.2266 4 13.875ZM14.625 13.25C14.9375 13.25 15.25 13.5625 15.25 13.875C15.25 14.2266 14.9375 14.5 14.625 14.5H9.625C9.27344 14.5 9 14.2266 9 13.875C9 13.5625 9.27344 13.25 9.625 13.25H14.625ZM14.3125 5.4375C14.3125 4.57812 14.9766 3.875 15.875 3.875H18.375C19.2344 3.875 19.9375 4.57812 19.9375 5.4375V7.3125C19.9375 8.21094 19.2344 8.875 18.375 8.875H15.875C14.9766 8.875 14.3125 8.21094 14.3125 7.3125V5.4375ZM15.5625 5.4375V7.3125C15.5625 7.50781 15.6797 7.625 15.875 7.625H18.375C18.5312 7.625 18.6875 7.50781 18.6875 7.3125V5.4375C18.6875 5.28125 18.5312 5.125 18.375 5.125H15.875C15.6797 5.125 15.5625 5.28125 15.5625 5.4375ZM20.25 0.75C21.6172 0.75 22.75 1.88281 22.75 3.25V15.75C22.75 17.1562 21.6172 18.25 20.25 18.25H2.75C1.34375 18.25 0.25 17.1562 0.25 15.75V3.25C0.25 1.88281 1.34375 0.75 2.75 0.75H20.25ZM20.25 2H2.75C2.04688 2 1.5 2.58594 1.5 3.25V15.75C1.5 16.4531 2.04688 17 2.75 17H20.25C20.9141 17 21.5 16.4531 21.5 15.75V3.25C21.5 2.58594 20.9141 2 20.25 2Z" fill="#F2B7A5"/>
</svg>
