<svg width="23" height="19" viewBox="0 0 23 19" fill="none" xmlns="http://www.w3.org/2000/svg">
<path d="M4.25 13.875C4.25 13.5625 4.52344 13.25 4.875 13.25H7.375C7.6875 13.25 8 13.5625 8 13.875C8 14.2266 7.6875 14.5 7.375 14.5H4.875C4.52344 14.5 4.25 14.2266 4.25 13.875ZM9.25 13.875C9.25 13.5625 9.52344 13.25 9.875 13.25H14.875C15.1875 13.25 15.5 13.5625 15.5 13.875C15.5 14.2266 15.1875 14.5 14.875 14.5H9.875C9.52344 14.5 9.25 14.2266 9.25 13.875ZM0.5 3.25C0.5 1.88281 1.59375 0.75 3 0.75H20.5C21.8672 0.75 23 1.88281 23 3.25V15.75C23 17.1562 21.8672 18.25 20.5 18.25H3C1.59375 18.25 0.5 17.1562 0.5 15.75V3.25ZM1.75 3.25V4.5H21.75V3.25C21.75 2.58594 21.1641 2 20.5 2H3C2.29688 2 1.75 2.58594 1.75 3.25ZM1.75 8.25H21.75V5.75H1.75V8.25ZM1.75 9.5V15.75C1.75 16.4531 2.29688 17 3 17H20.5C21.1641 17 21.75 16.4531 21.75 15.75V9.5H1.75Z" fill="#A5BAF2"/>
</svg>
