<svg width="23" height="21" viewBox="0 0 23 21" fill="none" xmlns="http://www.w3.org/2000/svg">
<path d="M3.375 0.5C3.64844 0.5 3.88281 0.734375 3.96094 1.00781L4.15625 1.75H21.3828C22.2031 1.75 22.8281 2.57031 22.5938 3.35156L20.4844 10.8516C20.3281 11.3984 19.8594 11.75 19.2734 11.75H6.42188L6.96875 14.25H19.625C19.9375 14.25 20.25 14.5625 20.25 14.875C20.25 15.2266 19.9375 15.5 19.625 15.5H6.5C6.1875 15.5 5.95312 15.3047 5.875 15.0312L2.86719 1.75H0.875C0.523438 1.75 0.25 1.47656 0.25 1.125C0.25 0.8125 0.523438 0.5 0.875 0.5H3.375ZM4.42969 3L6.10938 10.5H19.2734L21.3828 3H4.42969ZM5.25 18.3125C5.25 17.1406 6.22656 16.125 7.4375 16.125C8.60938 16.125 9.625 17.1406 9.625 18.3125C9.625 19.5234 8.60938 20.5 7.4375 20.5C6.22656 20.5 5.25 19.5234 5.25 18.3125ZM7.4375 19.25C7.94531 19.25 8.375 18.8594 8.375 18.3125C8.375 17.8047 7.94531 17.375 7.4375 17.375C6.89062 17.375 6.5 17.8047 6.5 18.3125C6.5 18.8594 6.89062 19.25 7.4375 19.25ZM20.25 18.3125C20.25 19.5234 19.2344 20.5 18.0625 20.5C16.8516 20.5 15.875 19.5234 15.875 18.3125C15.875 17.1406 16.8516 16.125 18.0625 16.125C19.2344 16.125 20.25 17.1406 20.25 18.3125ZM18.0625 17.375C17.5156 17.375 17.125 17.8047 17.125 18.3125C17.125 18.8594 17.5156 19.25 18.0625 19.25C18.5703 19.25 19 18.8594 19 18.3125C19 17.8047 18.5703 17.375 18.0625 17.375Z" fill="#F2B7A5"/>
</svg>
