<svg width="21" height="21" viewBox="0 0 21 21" fill="none" xmlns="http://www.w3.org/2000/svg">
<path d="M10.4923 13.7812C10.8829 13.3516 11.0392 12.7656 10.8829 12.1797C10.8048 11.6719 10.7658 11.8672 10.922 11.3594C11.0783 10.7734 10.922 10.1875 10.4923 9.75781C10.1408 9.36719 10.1408 9.44531 10.0236 8.89844C9.86732 8.35156 9.43764 7.88281 8.89076 7.76562C8.34389 7.60938 8.42201 7.64844 8.03139 7.25781C7.64076 6.82812 7.01576 6.67188 6.46889 6.82812C5.92201 6.98438 6.0392 6.98438 5.49232 6.82812C4.94545 6.67188 4.32045 6.82812 3.92982 7.25781C3.5392 7.64844 3.61732 7.60938 3.07045 7.76562C2.52357 7.88281 2.09389 8.35156 1.93764 8.89844C1.82045 9.44531 1.82045 9.36719 1.46889 9.75781C1.0392 10.1875 0.882949 10.7734 1.0392 11.3594C1.19545 11.8672 1.15639 11.6719 1.0392 12.1797C0.882949 12.7656 1.0392 13.3516 1.46889 13.7812C1.85951 14.1719 1.78139 14.0938 1.93764 14.6406C2.09389 15.1875 2.52357 15.6562 3.07045 15.7734C3.30482 15.8516 3.38295 15.8906 3.46107 15.9297V19.875C3.46107 20.1094 3.57826 20.3047 3.77357 20.4219C3.96889 20.5391 4.20326 20.5391 4.39857 20.4609L6.00014 19.6406L7.56264 20.4609C7.67982 20.5 7.75795 20.5 7.87514 20.5C7.95326 20.5 8.07045 20.5 8.18764 20.4219C8.38295 20.3047 8.50014 20.1094 8.50014 19.875V15.9297C8.57826 15.8906 8.65639 15.8906 8.89076 15.8125C9.43764 15.6562 9.86732 15.2266 10.0236 14.6797C10.1798 14.0938 10.1017 14.1719 10.4923 13.7812ZM7.25014 18.8984L6.27357 18.3906C6.07826 18.3125 5.88295 18.3125 5.68764 18.3906L4.71107 18.8984V16.7109C4.98451 16.7891 5.25795 16.7891 5.49232 16.7109C6.0392 16.5547 5.92201 16.5547 6.46889 16.7109C6.70326 16.7891 6.9767 16.7891 7.25014 16.7109V18.8984ZM9.67201 12.3359C9.75014 12.6484 9.7892 12.7266 9.51576 13C9.04701 13.4688 9.00795 13.5469 8.81264 14.2891C8.77357 14.5234 8.57826 14.5625 8.42201 14.6016C7.79701 14.7969 7.67982 14.8359 7.25014 15.3047C7.01576 15.5391 6.9767 15.5391 6.6642 15.4609C6.0392 15.3047 5.92201 15.3047 5.29701 15.4609C4.98451 15.5391 4.94545 15.5391 4.71107 15.3047C4.28139 14.8359 4.1642 14.7969 3.5392 14.6016C3.38295 14.5625 3.2267 14.5234 3.14857 14.2891C2.95326 13.5469 2.9142 13.4688 2.44545 13C2.17201 12.7266 2.21107 12.6484 2.2892 12.3359C2.44545 11.8281 2.44545 11.7109 2.2892 11.2031C2.21107 10.8906 2.17201 10.8125 2.44545 10.5391C2.87514 10.0703 2.95326 9.99219 3.10951 9.36719C3.18764 9.05469 3.2267 9.01562 3.5392 8.89844C4.1642 8.74219 4.28139 8.70312 4.71107 8.23438C4.94545 8 4.98451 7.96094 5.29701 8.07812C5.92201 8.23438 6.0392 8.23438 6.6642 8.07812C6.9767 7.96094 7.01576 8 7.25014 8.23438C7.67982 8.70312 7.79701 8.74219 8.42201 8.89844C8.73451 9.01562 8.77357 9.05469 8.8517 9.36719C9.00795 9.99219 9.08607 10.0703 9.51576 10.5391C9.7892 10.8125 9.75014 10.8906 9.67201 11.2031C9.51576 11.7109 9.51576 11.8281 9.67201 12.3359ZM20.2579 5.42188L16.0783 1.24219C15.6095 0.773438 14.9845 0.5 14.3204 0.5H8.46107C7.05482 0.5 5.96107 1.63281 5.96107 3L6.00014 4.875C6.00014 5.22656 6.27357 5.5 6.62514 5.5C6.93764 5.5 7.25014 5.22656 7.25014 4.875V3C7.25014 2.33594 7.79701 1.75 8.50014 1.75H13.5001V6.125C13.5001 7.17969 14.3204 8 15.3751 8H19.7501V18C19.7501 18.7031 19.1642 19.25 18.5001 19.25H10.3751C10.0236 19.25 9.75014 19.5625 9.75014 19.875C9.75014 20.2266 10.0236 20.5 10.3751 20.5H18.4611C19.8283 20.5 20.9611 19.4062 20.9611 18V7.17969C21.0001 6.51562 20.7267 5.89062 20.2579 5.42188ZM15.3751 6.75C15.0236 6.75 14.7501 6.47656 14.7501 6.125V1.86719C14.9064 1.90625 15.0626 1.98438 15.2189 2.14062L19.3595 6.28125C19.5158 6.4375 19.5939 6.59375 19.6329 6.75H15.3751Z" fill="#F2B7A5"/>
</svg>
