<svg width="7" height="7" viewBox="0 0 7 7" fill="none" xmlns="http://www.w3.org/2000/svg">
<path d="M4.14453 3.25L6.15625 1.25781L6.56641 0.847656C6.625 0.789062 6.625 0.691406 6.56641 0.613281L6.13672 0.183594C6.05859 0.125 5.96094 0.125 5.90234 0.183594L3.5 2.60547L1.07812 0.183594C1.01953 0.125 0.921875 0.125 0.84375 0.183594L0.414062 0.613281C0.355469 0.691406 0.355469 0.789062 0.414062 0.847656L2.83594 3.25L0.414062 5.67188C0.355469 5.73047 0.355469 5.82812 0.414062 5.90625L0.84375 6.33594C0.921875 6.39453 1.01953 6.39453 1.07812 6.33594L3.5 3.91406L5.49219 5.92578L5.90234 6.33594C5.96094 6.39453 6.05859 6.39453 6.13672 6.33594L6.56641 5.90625C6.625 5.82812 6.625 5.73047 6.56641 5.67188L4.14453 3.25Z" fill="white"/>
</svg>
