<svg width="28" height="23" viewBox="0 0 28 23" fill="none" xmlns="http://www.w3.org/2000/svg">
<path d="M9.18747 10.375C8.67185 10.375 8.3281 10.7617 8.3281 11.2344C8.3281 11.75 8.67185 12.0938 9.18747 12.0938C9.66013 12.0938 10.0468 11.75 10.0468 11.2344C10.0468 10.7617 9.66013 10.375 9.18747 10.375ZM9.87497 4.1875H8.3281C7.25388 4.1875 6.43747 5.04688 6.43747 6.12109C6.43747 6.50781 6.73826 6.80859 7.12497 6.80859C7.46872 6.80859 7.81247 6.50781 7.81247 6.12109C7.81247 5.82031 8.02732 5.5625 8.3281 5.5625H9.87497C10.2617 5.5625 10.5625 5.86328 10.5625 6.25C10.5625 6.50781 10.3906 6.72266 10.1758 6.85156L8.84372 7.53906C8.62888 7.625 8.49997 7.88281 8.49997 8.14062V9C8.49997 9.38672 8.80076 9.6875 9.18747 9.6875C9.53122 9.6875 9.87497 9.38672 9.87497 9V8.57031L10.7773 8.05469C11.4648 7.71094 11.9375 7.02344 11.9375 6.25C11.9375 5.13281 10.9922 4.1875 9.87497 4.1875ZM18.125 8.3125C18.125 4.14453 14.0859 0.75 9.18747 0.75C4.24607 0.75 0.249974 4.14453 0.249974 8.3125C0.249974 10.1172 0.980443 11.75 2.18357 13.0391C1.53904 14.4141 0.507787 15.5312 0.507787 15.5312C0.207006 15.832 0.164037 16.2617 0.292943 16.6484C0.464818 17.0352 0.851537 17.25 1.23826 17.25C3.55857 17.25 5.44919 16.3906 6.65232 15.5742C7.46872 15.7891 8.28513 15.875 9.18747 15.875C14.0859 15.875 18.125 12.5234 18.125 8.3125ZM9.18747 14.5C8.45701 14.5 7.68357 14.4141 6.99607 14.2422L6.39451 14.1133L5.92185 14.457C5.01951 15.0156 3.68747 15.7031 2.05466 15.875C2.44138 15.3164 2.99997 14.543 3.42966 13.6406L3.81638 12.7812L3.17185 12.0938C2.1406 11.0195 1.62497 9.6875 1.62497 8.3125C1.62497 4.91797 4.97654 2.125 9.18747 2.125C13.3554 2.125 16.75 4.91797 16.75 8.3125C16.75 11.75 13.3554 14.5 9.18747 14.5ZM26.289 19.4844C27.1914 18.2812 27.75 16.7773 27.75 15.1875C27.75 11.0195 24.0547 7.625 19.5 7.625C19.457 7.625 19.457 7.66797 19.457 7.66797C19.457 7.88281 19.5 8.09766 19.5 8.3125C19.5 8.57031 19.457 8.78516 19.457 9.04297C19.457 9.04297 19.457 9 19.5 9C23.2812 9 26.375 11.793 26.375 15.1875C26.375 16.4336 25.9453 17.6367 25.1719 18.668L24.6133 19.3984L25.1289 20.2148C25.3867 20.6445 25.6875 21.0742 25.9023 21.375C25.1289 21.2891 24.3554 21.0742 23.582 20.7305L23.0234 20.5156L22.5078 20.7734C21.5195 21.1602 20.5312 21.375 19.5 21.375C16.2344 21.375 13.5703 19.3984 12.8398 16.6914C12.4101 16.8203 11.9375 16.9492 11.4648 17.0352C12.3672 20.3438 15.5898 22.75 19.5 22.75C20.7461 22.75 21.9492 22.4922 23.0664 22.0195C24.0976 22.4492 25.3008 22.75 26.7187 22.75C27.1054 22.75 27.4922 22.5352 27.664 22.1484C27.7929 21.7617 27.707 21.332 27.4492 21.0742C27.4492 21.0312 26.8476 20.3867 26.289 19.4844ZM16.9219 15.2734C16.664 15.5742 16.664 16.0039 16.9219 16.2617L18.5547 17.8516C18.6836 17.9805 18.8554 18.0664 19.0273 18.0664C19.1992 18.0664 19.3711 17.9805 19.5 17.8516L23.0664 14.3281C23.3242 14.0703 23.3242 13.5977 23.0664 13.3398C22.8086 13.082 22.3359 13.082 22.0781 13.3398L19.0273 16.4336L17.9101 15.3164C17.6523 15.0156 17.1797 15.0156 16.9219 15.2734Z" fill="white"/>
</svg>
