<svg width="25" height="20" viewBox="0 0 25 20" fill="none" xmlns="http://www.w3.org/2000/svg">
<path d="M4.25 11.8125C4.25 11.4688 4.55078 11.125 4.9375 11.125H20.0625C20.4062 11.125 20.75 11.4688 20.75 11.8125C20.75 12.1992 20.4062 12.5 20.0625 12.5H4.9375C4.55078 12.5 4.25 12.1992 4.25 11.8125ZM4.25 14.5625C4.25 14.2188 4.55078 13.875 4.9375 13.875H7.6875C8.03125 13.875 8.375 14.2188 8.375 14.5625C8.375 14.9492 8.03125 15.25 7.6875 15.25H4.9375C4.55078 15.25 4.25 14.9492 4.25 14.5625ZM15.9375 13.875C16.2812 13.875 16.625 14.2188 16.625 14.5625C16.625 14.9492 16.2812 15.25 15.9375 15.25H10.4375C10.0508 15.25 9.75 14.9492 9.75 14.5625C9.75 14.2188 10.0508 13.875 10.4375 13.875H15.9375ZM15.5938 5.28125C15.5938 4.33594 16.3242 3.5625 17.3125 3.5625H20.0625C21.0078 3.5625 21.7812 4.33594 21.7812 5.28125V7.34375C21.7812 8.33203 21.0078 9.0625 20.0625 9.0625H17.3125C16.3242 9.0625 15.5938 8.33203 15.5938 7.34375V5.28125ZM16.9688 5.28125V7.34375C16.9688 7.55859 17.0977 7.6875 17.3125 7.6875H20.0625C20.2344 7.6875 20.4062 7.55859 20.4062 7.34375V5.28125C20.4062 5.10938 20.2344 4.9375 20.0625 4.9375H17.3125C17.0977 4.9375 16.9688 5.10938 16.9688 5.28125ZM22.125 0.125C23.6289 0.125 24.875 1.37109 24.875 2.875V16.625C24.875 18.1719 23.6289 19.375 22.125 19.375H2.875C1.32812 19.375 0.125 18.1719 0.125 16.625V2.875C0.125 1.37109 1.32812 0.125 2.875 0.125H22.125ZM22.125 1.5H2.875C2.10156 1.5 1.5 2.14453 1.5 2.875V16.625C1.5 17.3984 2.10156 18 2.875 18H22.125C22.8555 18 23.5 17.3984 23.5 16.625V2.875C23.5 2.14453 22.8555 1.5 22.125 1.5Z" fill="white"/>
</svg>
