<svg width="9" height="11" viewBox="0 0 9 11" fill="none" xmlns="http://www.w3.org/2000/svg">
<path d="M8.71875 1.5H6.6875L6.02344 0.640625C5.84766 0.40625 5.57422 0.25 5.28125 0.25H3.71875C3.40625 0.25 3.13281 0.40625 2.95703 0.640625L2.3125 1.5H0.28125C0.183594 1.5 0.125 1.57812 0.125 1.65625V1.96875C0.125 2.06641 0.183594 2.125 0.28125 2.125H0.632812L1.29688 9.41016C1.33594 9.87891 1.72656 10.25 2.21484 10.25H6.76562C7.25391 10.25 7.64453 9.87891 7.68359 9.41016L8.34766 2.125H8.71875C8.79688 2.125 8.875 2.06641 8.875 1.96875V1.65625C8.875 1.57812 8.79688 1.5 8.71875 1.5ZM3.46484 1.01172C3.52344 0.933594 3.60156 0.894531 3.71875 0.875H5.28125C5.37891 0.894531 5.45703 0.933594 5.51562 1.01172L5.90625 1.5H3.09375L3.46484 1.01172ZM7.07812 9.35156C7.05859 9.50781 6.92188 9.625 6.76562 9.625H2.21484C2.05859 9.625 1.92188 9.50781 1.92188 9.35156L1.27734 2.125H7.72266L7.07812 9.35156Z" fill="#990F0F"/>
</svg>
