<svg width="10" height="11" viewBox="0 0 10 11" fill="none" xmlns="http://www.w3.org/2000/svg">
<path d="M8.82812 8.6875C8.82812 8.47266 8.65234 8.29688 8.4375 8.29688C8.22266 8.29688 8.04688 8.47266 8.04688 8.6875C8.04688 8.90234 8.22266 9.07812 8.4375 9.07812C8.65234 9.07812 8.82812 8.90234 8.82812 8.6875ZM7.1875 8.29688C6.97266 8.29688 6.79688 8.47266 6.79688 8.6875C6.79688 8.90234 6.97266 9.07812 7.1875 9.07812C7.40234 9.07812 7.57812 8.90234 7.57812 8.6875C7.57812 8.47266 7.40234 8.29688 7.1875 8.29688ZM10 7.35938C10 6.89062 9.60938 6.5 9.14062 6.5H7.1875L8.30078 5.40625C8.78906 4.91797 8.4375 4.07812 7.73438 4.07812H6.71875V1.03125C6.71875 0.601562 6.36719 0.25 5.9375 0.25H4.0625C3.61328 0.25 3.28125 0.601562 3.28125 1.03125V4.07812H2.24609C1.54297 4.07812 1.19141 4.91797 1.69922 5.40625L2.79297 6.5H0.859375C0.371094 6.5 0 6.89062 0 7.35938V9.39062C0 9.87891 0.371094 10.25 0.859375 10.25H9.14062C9.60938 10.25 10 9.87891 10 9.39062V7.35938ZM4.88281 7.71094L2.12891 4.95703C2.03125 4.85938 2.10938 4.70312 2.24609 4.70312H3.90625V1.03125C3.90625 0.953125 3.96484 0.875 4.0625 0.875H5.9375C6.01562 0.875 6.09375 0.953125 6.09375 1.03125V4.70312H7.73438C7.87109 4.70312 7.94922 4.85938 7.85156 4.95703L5.09766 7.71094C5.03906 7.76953 4.94141 7.76953 4.88281 7.71094ZM9.375 7.35938V9.39062C9.375 9.52734 9.25781 9.625 9.14062 9.625H0.859375C0.722656 9.625 0.625 9.52734 0.625 9.39062V7.35938C0.625 7.24219 0.722656 7.125 0.859375 7.125H3.41797L4.43359 8.16016C4.74609 8.45312 5.23438 8.45312 5.54688 8.16016L6.5625 7.125H9.14062C9.25781 7.125 9.375 7.24219 9.375 7.35938Z" fill="#313131"/>
</svg>
