<svg width="12" height="13" viewBox="0 0 12 13" fill="none" xmlns="http://www.w3.org/2000/svg">
<path d="M5.74219 9.40625C5.8125 9.47656 5.90625 9.5 6 9.5C6.07031 9.5 6.16406 9.47656 6.23438 9.40625L9.60938 6.40625C9.77344 6.28906 9.77344 6.03125 9.63281 5.89062C9.51562 5.72656 9.25781 5.72656 9.11719 5.86719L6.375 8.30469V0.875C6.375 0.6875 6.1875 0.5 6 0.5C5.78906 0.5 5.625 0.6875 5.625 0.875V8.30469L2.85938 5.84375C2.71875 5.72656 2.46094 5.72656 2.34375 5.89062C2.20312 6.03125 2.20312 6.28906 2.36719 6.40625L5.74219 9.40625ZM10.5 8H9.375C9.16406 8 9 8.1875 9 8.375C9 8.58594 9.16406 8.75 9.375 8.75H10.5C10.8984 8.75 11.25 9.10156 11.25 9.5V11C11.25 11.4219 10.8984 11.75 10.5 11.75H1.5C1.07812 11.75 0.75 11.4219 0.75 11V9.5C0.75 9.10156 1.07812 8.75 1.5 8.75H2.625C2.8125 8.75 3 8.58594 3 8.375C3 8.1875 2.8125 8 2.625 8H1.5C0.65625 8 0 8.67969 0 9.5V11C0 11.8438 0.65625 12.5 1.5 12.5H10.5C11.3203 12.5 12 11.8438 12 11V9.5C12 8.67969 11.3203 8 10.5 8ZM10.3125 10.25C10.3125 9.94531 10.0547 9.6875 9.75 9.6875C9.42188 9.6875 9.1875 9.94531 9.1875 10.25C9.1875 10.5781 9.42188 10.8125 9.75 10.8125C10.0547 10.8125 10.3125 10.5781 10.3125 10.25Z" fill="#313131"/>
</svg>
