<svg width="12" height="11" viewBox="0 0 12 11" fill="none" xmlns="http://www.w3.org/2000/svg">
<path d="M8.51953 6.42188C8.5 6.44141 8.5 6.48047 8.5 6.5V9.3125C8.5 9.48828 8.34375 9.625 8.1875 9.625H1.3125C1.13672 9.625 1 9.48828 1 9.3125V2.4375C1 2.28125 1.13672 2.125 1.3125 2.125H6.625C6.64453 2.125 6.68359 2.125 6.70312 2.10547L7.09375 1.71484C7.17188 1.63672 7.11328 1.5 7.01562 1.5H1.3125C0.785156 1.5 0.375 1.92969 0.375 2.4375V9.3125C0.375 9.83984 0.785156 10.25 1.3125 10.25H8.1875C8.69531 10.25 9.125 9.83984 9.125 9.3125V6.10938C9.125 6.01172 8.98828 5.95312 8.91016 6.03125L8.51953 6.42188ZM11.3711 2.69141C11.7031 2.35938 11.7031 1.85156 11.3711 1.51953L10.3555 0.503906C10.0234 0.171875 9.51562 0.171875 9.18359 0.503906L3.08984 6.59766L2.875 8.55078C2.83594 8.82422 3.05078 9.03906 3.32422 9L5.27734 8.78516L11.3711 2.69141ZM9.55469 3.62891L4.98438 8.19922L3.51953 8.35547L3.67578 6.89062L8.24609 2.32031L9.55469 3.62891ZM10.9414 1.96875C11.0195 2.04688 11.0195 2.16406 10.9414 2.24219L9.98438 3.17969L8.69531 1.89062L9.63281 0.933594C9.71094 0.855469 9.82812 0.875 9.90625 0.933594L10.9414 1.96875Z" fill="#313131"/>
</svg>
