<svg width="23" height="23" viewBox="0 0 23 23" fill="none" xmlns="http://www.w3.org/2000/svg">
<path d="M11.4414 15.3594C11.8711 14.8867 12.043 14.2422 11.8711 13.5977C11.7852 13.0391 11.7422 13.2539 11.9141 12.6953C12.086 12.0508 11.9141 11.4062 11.4414 10.9336C11.0547 10.5039 11.0547 10.5898 10.9258 9.98828C10.7539 9.38672 10.2813 8.87109 9.6797 8.74219C9.07814 8.57031 9.16408 8.61328 8.73439 8.18359C8.3047 7.71094 7.6172 7.53906 7.01564 7.71094C6.41408 7.88281 6.54298 7.88281 5.94142 7.71094C5.33986 7.53906 4.65236 7.71094 4.22267 8.18359C3.79298 8.61328 3.87892 8.57031 3.27736 8.74219C2.6758 8.87109 2.20314 9.38672 2.03127 9.98828C1.90236 10.5898 1.90236 10.5039 1.51564 10.9336C1.04299 11.4062 0.87111 12.0508 1.04298 12.6953C1.21486 13.2539 1.17189 13.0391 1.04298 13.5977C0.87111 14.2422 1.04299 14.8867 1.51564 15.3594C1.94533 15.7891 1.85939 15.7031 2.03127 16.3047C2.20314 16.9062 2.6758 17.4219 3.27736 17.5508C3.53517 17.6367 3.62111 17.6797 3.70705 17.7227V22.0625C3.70705 22.3203 3.83595 22.5352 4.0508 22.6641C4.26564 22.793 4.52345 22.793 4.7383 22.707L6.50002 21.8047L8.21877 22.707C8.34767 22.75 8.43361 22.75 8.56252 22.75C8.64845 22.75 8.77736 22.75 8.90627 22.6641C9.12111 22.5352 9.25002 22.3203 9.25002 22.0625V17.7227C9.33595 17.6797 9.42189 17.6797 9.6797 17.5938C10.2813 17.4219 10.7539 16.9492 10.9258 16.3477C11.0977 15.7031 11.0117 15.7891 11.4414 15.3594ZM7.87502 20.9883L6.8008 20.4297C6.58595 20.3438 6.37111 20.3438 6.15627 20.4297L5.08205 20.9883V18.582C5.38283 18.668 5.68361 18.668 5.94142 18.582C6.54298 18.4102 6.41408 18.4102 7.01564 18.582C7.27345 18.668 7.57423 18.668 7.87502 18.582V20.9883ZM10.5391 13.7695C10.625 14.1133 10.668 14.1992 10.3672 14.5C9.85158 15.0156 9.80861 15.1016 9.59377 15.918C9.5508 16.1758 9.33595 16.2188 9.16408 16.2617C8.47658 16.4766 8.34767 16.5195 7.87502 17.0352C7.6172 17.293 7.57423 17.293 7.23048 17.207C6.54298 17.0352 6.41408 17.0352 5.72658 17.207C5.38283 17.293 5.33986 17.293 5.08205 17.0352C4.60939 16.5195 4.48048 16.4766 3.79298 16.2617C3.62111 16.2188 3.44923 16.1758 3.3633 15.918C3.14845 15.1016 3.10548 15.0156 2.58986 14.5C2.28908 14.1992 2.33205 14.1133 2.41798 13.7695C2.58986 13.2109 2.58986 13.082 2.41798 12.5234C2.33205 12.1797 2.28908 12.0938 2.58986 11.793C3.06252 11.2773 3.14845 11.1914 3.32033 10.5039C3.40627 10.1602 3.44923 10.1172 3.79298 9.98828C4.48048 9.81641 4.60939 9.77344 5.08205 9.25781C5.33986 9 5.38283 8.95703 5.72658 9.08594C6.41408 9.25781 6.54298 9.25781 7.23048 9.08594C7.57423 8.95703 7.6172 9 7.87502 9.25781C8.34767 9.77344 8.47658 9.81641 9.16408 9.98828C9.50783 10.1172 9.5508 10.1602 9.63673 10.5039C9.80861 11.1914 9.89455 11.2773 10.3672 11.793C10.668 12.0938 10.625 12.1797 10.5391 12.5234C10.3672 13.082 10.3672 13.2109 10.5391 13.7695ZM22.1836 6.16406L17.586 1.56641C17.0703 1.05078 16.3828 0.75 15.6524 0.75H9.20705C7.66017 0.75 6.45705 1.99609 6.45705 3.5L6.50002 5.5625C6.50002 5.94922 6.8008 6.25 7.18752 6.25C7.53127 6.25 7.87502 5.94922 7.87502 5.5625V3.5C7.87502 2.76953 8.47658 2.125 9.25002 2.125H14.75V6.9375C14.75 8.09766 15.6524 9 16.8125 9H21.625V20C21.625 20.7734 20.9805 21.375 20.25 21.375H11.3125C10.9258 21.375 10.625 21.7188 10.625 22.0625C10.625 22.4492 10.9258 22.75 11.3125 22.75H20.207C21.711 22.75 22.957 21.5469 22.957 20V8.09766C23 7.36719 22.6992 6.67969 22.1836 6.16406ZM16.8125 7.625C16.4258 7.625 16.125 7.32422 16.125 6.9375V2.25391C16.2969 2.29688 16.4688 2.38281 16.6406 2.55469L21.1953 7.10938C21.3672 7.28125 21.4531 7.45312 21.4961 7.625H16.8125Z" fill="white"/>
</svg>
