<svg width="11" height="15" viewBox="0 0 11 15" fill="none" xmlns="http://www.w3.org/2000/svg">
<path d="M10.0898 3.42969L7.82031 1.13281C7.57422 0.886719 7.21875 0.75 6.89062 0.75H1.3125C0.574219 0.75 0 1.35156 0 2.0625V13.4375C0 14.1758 0.574219 14.75 1.3125 14.75H9.1875C9.89844 14.75 10.5 14.1758 10.5 13.4375V4.35938C10.5 4.03125 10.3359 3.67578 10.0898 3.42969ZM9.07812 4.25H7V2.17188L9.07812 4.25ZM1.3125 13.4375V2.0625H5.6875V4.90625C5.6875 5.28906 5.96094 5.5625 6.34375 5.5625H9.1875V13.4375H1.3125ZM7.10938 6.875H6.31641C6.17969 6.875 6.07031 6.95703 6.01562 7.06641C5.52344 7.96875 5.41406 8.21484 5.25 8.625C4.86719 7.83203 5.05859 8.16016 4.45703 7.06641C4.40234 6.95703 4.29297 6.875 4.15625 6.875H3.39062C3.11719 6.875 2.98047 7.14844 3.08984 7.36719L4.34766 9.5L3.08984 11.6328C2.95312 11.8516 3.11719 12.125 3.39062 12.125H4.15625C4.29297 12.125 4.40234 12.0703 4.45703 11.9609C5.05859 10.8672 5.08594 10.7305 5.25 10.375C5.63281 11.2227 5.38672 10.8125 6.01562 11.9609C6.07031 12.0703 6.17969 12.125 6.31641 12.125H7.10938C7.35547 12.125 7.51953 11.8516 7.38281 11.6328L6.125 9.5C6.125 9.47266 6.94531 8.13281 7.38281 7.36719C7.51953 7.14844 7.35547 6.875 7.10938 6.875Z" fill="#313131"/>
</svg>
