<svg width="12" height="15" viewBox="0 0 12 15" fill="none" xmlns="http://www.w3.org/2000/svg">
<path d="M10.7305 4.19531L7.80469 1.26953C7.47656 0.941406 7.03906 0.75 6.57422 0.75H2.5C1.51562 0.75 0.75 1.54297 0.75 2.5V13C0.75 13.9844 1.51562 14.75 2.5 14.75H9.5C10.457 14.75 11.25 13.9844 11.25 13V5.42578C11.25 4.96094 11.0586 4.52344 10.7305 4.19531ZM6.875 1.70703C6.98438 1.73438 7.09375 1.78906 7.20312 1.89844L10.1016 4.79688C10.2109 4.90625 10.2656 5.01562 10.293 5.125H7.3125C7.06641 5.125 6.875 4.93359 6.875 4.6875V1.70703ZM10.375 13C10.375 13.4922 9.96484 13.875 9.5 13.875H2.5C2.00781 13.875 1.625 13.4922 1.625 13V2.5C1.625 2.03516 2.00781 1.625 2.5 1.625H6V4.6875C6 5.42578 6.57422 6 7.3125 6H10.375V13ZM6.27344 8.67969C6.54688 7.80469 6.57422 7.12109 6.57422 6.98438C6.57422 6.4375 6.13672 6 5.58984 6C5.07031 6 4.63281 6.4375 4.63281 6.98438C4.63281 6.98438 4.63281 7.77734 5.01562 8.73438C4.82422 9.25391 4.57812 9.80078 4.30469 10.3203C3.67578 10.6211 3.15625 10.9492 2.77344 11.332C2.58203 11.5234 2.5 11.7695 2.5 12.043C2.5 12.5898 2.91016 13 3.45703 13C3.75781 13 4.05859 12.8633 4.25 12.6172C4.41406 12.3984 4.74219 11.9062 5.125 11.25C5.58984 11.0586 6.10938 10.9219 6.71094 10.7852C7.03906 11.0039 7.85938 11.4961 8.43359 11.4961C9.03516 11.4961 9.5 11.0312 9.5 10.457C9.5 9.88281 9.00781 9.39062 8.40625 9.39062C7.96875 9.39062 7.3125 9.5 6.98438 9.55469C6.71094 9.30859 6.46484 9.00781 6.27344 8.67969ZM3.62109 12.1523C3.51172 12.2891 3.26562 12.2344 3.26562 12.0156C3.26562 11.9609 3.29297 11.9336 3.32031 11.9062C3.56641 11.6328 3.89453 11.4141 4.22266 11.2227C3.94922 11.6875 3.73047 11.9883 3.62109 12.1523ZM5.58984 6.79297C5.69922 6.79297 5.78125 6.875 5.78125 6.98438C5.78125 7.39453 5.67188 7.94141 5.61719 8.16016C5.39844 7.53125 5.39844 7.01172 5.39844 6.98438C5.39844 6.875 5.48047 6.79297 5.58984 6.79297ZM5.125 10.4023C5.31641 10.0469 5.50781 9.60938 5.69922 9.17188C5.86328 9.47266 6.10938 9.77344 6.41016 10.0469C6 10.1562 5.5625 10.2656 5.125 10.4023ZM8.40625 10.1836C8.57031 10.1836 8.70703 10.293 8.70703 10.4844C8.70703 10.6211 8.59766 10.7305 8.43359 10.7305C8.1875 10.7305 7.61328 10.457 7.33984 10.293C7.36719 10.293 8.07812 10.1836 8.40625 10.1836Z" fill="#313131"/>
</svg>
