<svg width="18" height="19" viewBox="0 0 18 19" fill="none" xmlns="http://www.w3.org/2000/svg">
<path d="M9.25 6.6875C9.75781 6.6875 10.1875 6.29688 10.1875 5.75C10.1875 5.24219 9.75781 4.8125 9.25 4.8125C8.70312 4.8125 8.3125 5.24219 8.3125 5.75C8.3125 6.29688 8.70312 6.6875 9.25 6.6875ZM15.5 0.75H3C1.59375 0.75 0.5 1.88281 0.5 3.25V15.75C0.5 17.1562 1.59375 18.25 3 18.25H15.5C16.8672 18.25 18 17.1562 18 15.75V3.25C18 1.88281 16.8672 0.75 15.5 0.75ZM16.75 15.75C16.75 16.4531 16.1641 17 15.5 17H3C2.29688 17 1.75 16.4531 1.75 15.75V3.25C1.75 2.58594 2.29688 2 3 2H15.5C16.1641 2 16.75 2.58594 16.75 3.25V15.75ZM11.125 13.25H9.875V8.875C9.875 8.5625 9.5625 8.25 9.25 8.25H8C7.64844 8.25 7.375 8.5625 7.375 8.875C7.375 9.22656 7.64844 9.5 8 9.5H8.625V13.25H7.375C7.02344 13.25 6.75 13.5625 6.75 13.875C6.75 14.2266 7.02344 14.5 7.375 14.5H11.125C11.4375 14.5 11.75 14.2266 11.75 13.875C11.75 13.5625 11.4375 13.25 11.125 13.25Z" fill="#DEA5F2"/>
</svg>
