<svg width="10" height="11" viewBox="0 0 10 11" fill="none" xmlns="http://www.w3.org/2000/svg">
<path d="M6.5625 0.875C8.10547 0.875 9.375 2.14453 9.375 3.6875C9.375 5.25 8.10547 6.5 6.5625 6.5C6.19141 6.5 5.82031 6.44141 5.50781 6.30469L4.6875 7.125H3.75V8.375H2.5V9.625H0.625V8.0625L3.94531 4.74219C3.80859 4.42969 3.75 4.05859 3.75 3.6875C3.75 2.14453 5 0.875 6.5625 0.875ZM6.5625 0.25C4.64844 0.25 3.125 1.79297 3.125 3.6875C3.125 4 3.14453 4.29297 3.22266 4.56641L0.136719 7.67188C0.0390625 7.76953 0 7.88672 0 8.00391V9.78125C0 10.0547 0.195312 10.25 0.46875 10.25H2.65625C2.91016 10.25 3.125 10.0547 3.125 9.78125V9H3.90625C4.16016 9 4.375 8.80469 4.375 8.53125V7.75H4.74609C4.86328 7.75 4.98047 7.71094 5.07812 7.61328L5.68359 7.02734C5.95703 7.10547 6.25 7.125 6.5625 7.125C8.45703 7.125 10 5.60156 10 3.6875C10 1.79297 8.45703 0.25 6.5625 0.25ZM7.5 2.35938C7.71484 2.35938 7.89062 2.53516 7.89062 2.75C7.89062 2.98438 7.71484 3.14062 7.5 3.14062C7.26562 3.14062 7.10938 2.98438 7.10938 2.75C7.10938 2.53516 7.26562 2.35938 7.5 2.35938ZM7.5 1.8125C6.97266 1.8125 6.5625 2.24219 6.5625 2.75C6.5625 3.27734 6.97266 3.6875 7.5 3.6875C8.00781 3.6875 8.4375 3.27734 8.4375 2.75C8.4375 2.24219 8.00781 1.8125 7.5 1.8125Z" fill="#313131"/>
</svg>
