<svg width="16" height="11" viewBox="0 0 16 11" fill="none" xmlns="http://www.w3.org/2000/svg">
<path d="M4.55469 2.59375C5.70312 1.42188 7.60156 1.42188 8.77344 2.59375C9.89844 3.69531 9.94531 5.47656 8.9375 6.67188L8.79688 6.8125C8.65625 6.97656 8.42188 7 8.28125 6.85938C8.11719 6.71875 8.09375 6.48438 8.23438 6.32031L8.35156 6.17969C9.125 5.28906 9.07812 3.95312 8.25781 3.13281C7.36719 2.24219 5.96094 2.24219 5.07031 3.13281L2.16406 6.03906C1.27344 6.92969 1.27344 8.33594 2.16406 9.22656C3.03125 10.0938 4.46094 10.0938 5.32812 9.22656L5.86719 8.6875C6.00781 8.54688 6.24219 8.54688 6.40625 8.6875C6.54688 8.82812 6.54688 9.08594 6.40625 9.22656L5.86719 9.74219C4.69531 10.9141 2.79688 10.9141 1.625 9.74219C0.453125 8.57031 0.453125 6.67188 1.625 5.5L4.55469 2.59375ZM11.4219 8.42969C10.2734 9.60156 8.375 9.60156 7.20312 8.42969C6.07812 7.32812 6.03125 5.54688 7.03906 4.35156L7.17969 4.21094C7.32031 4.04688 7.55469 4.02344 7.69531 4.16406C7.85938 4.30469 7.88281 4.53906 7.74219 4.70312L7.625 4.84375C6.85156 5.73438 6.89844 7.07031 7.71875 7.89062C8.60938 8.78125 10.0156 8.78125 10.9062 7.89062L13.8125 4.98438C14.7031 4.09375 14.7031 2.6875 13.8125 1.79688C12.9453 0.929688 11.5156 0.929688 10.6484 1.79688L10.1094 2.33594C9.96875 2.47656 9.73438 2.47656 9.57031 2.33594C9.42969 2.17188 9.42969 1.9375 9.57031 1.79688L10.1094 1.25781C11.2812 0.0859375 13.1797 0.0859375 14.3516 1.25781C15.5234 2.42969 15.5234 4.32812 14.3516 5.5L11.4219 8.42969Z" fill="#313131"/>
</svg>
