<svg width="18" height="21" viewBox="0 0 18 21" fill="none" xmlns="http://www.w3.org/2000/svg">
<path d="M4.25 14.5625C3.70312 14.5625 3.3125 14.9922 3.3125 15.5C3.3125 16.0469 3.70312 16.4375 4.25 16.4375C4.75781 16.4375 5.1875 16.0469 5.1875 15.5C5.1875 14.9922 4.75781 14.5625 4.25 14.5625ZM14.25 14.875H7.375C7.02344 14.875 6.75 15.1875 6.75 15.5C6.75 15.8516 7.02344 16.125 7.375 16.125H14.25C14.5625 16.125 14.875 15.8516 14.875 15.5C14.875 15.1875 14.5625 14.875 14.25 14.875ZM4.44531 11.75C4.60156 11.75 4.75781 11.7109 4.875 11.5938L7.17969 9.28906C7.41406 9.05469 7.41406 8.66406 7.17969 8.42969C6.94531 8.15625 6.51562 8.15625 6.28125 8.42969L4.44531 10.2656L3.74219 9.5625C3.50781 9.32812 3.07812 9.32812 2.84375 9.5625C2.60938 9.79688 2.60938 10.1875 2.84375 10.4609L4.01562 11.5938C4.13281 11.7109 4.28906 11.75 4.44531 11.75ZM4.25 6.4375C4.75781 6.4375 5.1875 6.04688 5.1875 5.5C5.1875 4.99219 4.75781 4.5625 4.25 4.5625C3.70312 4.5625 3.3125 4.99219 3.3125 5.5C3.3125 6.04688 3.70312 6.4375 4.25 6.4375ZM14.25 9.875H8.625C8.27344 9.875 8 10.1875 8 10.5C8 10.8516 8.27344 11.125 8.625 11.125H14.25C14.5625 11.125 14.875 10.8516 14.875 10.5C14.875 10.1875 14.5625 9.875 14.25 9.875ZM15.5 0.5H3C1.59375 0.5 0.5 1.63281 0.5 3V18C0.5 19.4062 1.59375 20.5 3 20.5H15.5C16.8672 20.5 18 19.4062 18 18V3C18 1.63281 16.8672 0.5 15.5 0.5ZM16.75 18C16.75 18.7031 16.1641 19.25 15.5 19.25H3C2.29688 19.25 1.75 18.7031 1.75 18V3C1.75 2.33594 2.29688 1.75 3 1.75H15.5C16.1641 1.75 16.75 2.33594 16.75 3V18ZM14.25 4.875H7.375C7.02344 4.875 6.75 5.1875 6.75 5.5C6.75 5.85156 7.02344 6.125 7.375 6.125H14.25C14.5625 6.125 14.875 5.85156 14.875 5.5C14.875 5.1875 14.5625 4.875 14.25 4.875Z" fill="#4E89E2"/>
</svg>
