<svg width="13" height="15" viewBox="0 0 13 15" fill="none" xmlns="http://www.w3.org/2000/svg">
<path d="M10.9375 6H10.0625V4.74219C10.0625 2.55469 8.3125 0.777344 6.125 0.75C3.9375 0.75 2.1875 2.52734 2.1875 4.6875V6H1.3125C0.574219 6 0 6.60156 0 7.3125V13.4375C0 14.1758 0.574219 14.75 1.3125 14.75H10.9375C11.6484 14.75 12.25 14.1758 12.25 13.4375V7.3125C12.25 6.60156 11.6484 6 10.9375 6ZM3.5 4.6875C3.5 3.26562 4.67578 2.0625 6.125 2.0625C7.54688 2.0625 8.75 3.26562 8.75 4.6875V6H3.5V4.6875ZM10.9375 13.4375H1.3125V7.3125H10.9375V13.4375Z" fill="#313131"/>
</svg>
