<svg width="22" height="20" viewBox="0 0 22 20" fill="none" xmlns="http://www.w3.org/2000/svg">
<path d="M19.25 0.125C20.7539 0.125 22 1.37109 22 2.875V16.625C22 18.1719 20.7539 19.375 19.25 19.375H2.75C1.20312 19.375 0 18.1719 0 16.625V2.875C0 1.37109 1.20312 0.125 2.75 0.125H19.25ZM19.25 1.5H2.75C1.97656 1.5 1.375 2.14453 1.375 2.875V5.625H20.625V2.875C20.625 2.14453 19.9805 1.5 19.25 1.5ZM2.75 18H10.3125V7H1.375V16.625C1.375 17.3984 1.97656 18 2.75 18ZM11.6875 18H19.25C19.9805 18 20.625 17.3984 20.625 16.625V7H11.6875V18Z" fill="white"/>
</svg>
