<svg width="13" height="11" viewBox="0 0 13 11" fill="none" xmlns="http://www.w3.org/2000/svg">
<path d="M12.125 7.125H11.5V5.23047C11.5 4.89844 11.2266 4.625 10.8945 4.625H6.8125V3.375H7.75C8.08203 3.375 8.375 3.10156 8.375 2.75V0.875C8.375 0.542969 8.08203 0.25 7.75 0.25H5.25C4.89844 0.25 4.625 0.542969 4.625 0.875V2.75C4.625 3.10156 4.89844 3.375 5.25 3.375H6.1875V4.625H2.08594C1.75391 4.625 1.5 4.89844 1.5 5.23047V7.125H0.875C0.523438 7.125 0.25 7.41797 0.25 7.75V9.625C0.25 9.97656 0.523438 10.25 0.875 10.25H2.75C3.08203 10.25 3.375 9.97656 3.375 9.625V7.75C3.375 7.41797 3.08203 7.125 2.75 7.125H2.125V5.25H6.1875V7.125H5.5625C5.21094 7.125 4.9375 7.41797 4.9375 7.75V9.625C4.9375 9.97656 5.21094 10.25 5.5625 10.25H7.4375C7.76953 10.25 8.0625 9.97656 8.0625 9.625V7.75C8.0625 7.41797 7.76953 7.125 7.4375 7.125H6.8125V5.25H10.875V7.125H10.25C9.89844 7.125 9.625 7.41797 9.625 7.75V9.625C9.625 9.97656 9.89844 10.25 10.25 10.25H12.125C12.457 10.25 12.75 9.97656 12.75 9.625V7.75C12.75 7.41797 12.457 7.125 12.125 7.125ZM2.75 7.75V9.625H0.875V7.75H2.75ZM7.4375 7.75V9.625H5.5625V7.75H7.4375ZM5.25 2.75V0.875H7.75V2.75H5.25ZM12.125 9.625H10.25V7.75H12.125V9.625Z" fill="#313131"/>
</svg>
