<svg width="25" height="19" viewBox="0 0 25 19" fill="none" xmlns="http://www.w3.org/2000/svg">
<path d="M6.25 9.5H18.75V5.04688C17.6562 4.77344 16.875 3.79688 16.875 2.625C16.875 1.25781 17.9688 0.125 19.375 0.125C20.7422 0.125 21.875 1.25781 21.875 2.625C21.875 3.79688 21.0547 4.77344 20 5.04688V9.5H24.375C24.6875 9.5 25 9.8125 25 10.125C25 10.4766 24.6875 10.75 24.375 10.75H13.75V13.9531C14.8047 14.2656 15.625 15.2422 15.625 16.375C15.625 17.7812 14.4922 18.875 13.125 18.875C11.7188 18.875 10.625 17.7812 10.625 16.375C10.625 15.2422 11.4062 14.2656 12.5 13.9531V10.75H0.625C0.273438 10.75 0 10.4766 0 10.125C0 9.8125 0.273438 9.5 0.625 9.5H5V5.04688C3.90625 4.77344 3.125 3.79688 3.125 2.625C3.125 1.25781 4.21875 0.125 5.625 0.125C6.99219 0.125 8.125 1.25781 8.125 2.625C8.125 3.79688 7.30469 4.77344 6.25 5.04688V9.5ZM5.625 3.875C6.28906 3.875 6.875 3.32812 6.875 2.625C6.875 1.96094 6.28906 1.375 5.625 1.375C4.92188 1.375 4.375 1.96094 4.375 2.625C4.375 3.32812 4.92188 3.875 5.625 3.875ZM13.125 15.125C12.4219 15.125 11.875 15.7109 11.875 16.375C11.875 17.0781 12.4219 17.625 13.125 17.625C13.7891 17.625 14.375 17.0781 14.375 16.375C14.375 15.7109 13.7891 15.125 13.125 15.125ZM19.375 3.875C20.0391 3.875 20.625 3.32812 20.625 2.625C20.625 1.96094 20.0391 1.375 19.375 1.375C18.6719 1.375 18.125 1.96094 18.125 2.625C18.125 3.32812 18.6719 3.875 19.375 3.875Z" fill="#4E89E2"/>
</svg>
