<svg width="28" height="23" viewBox="0 0 28 23" fill="none" xmlns="http://www.w3.org/2000/svg">
<path d="M13.957 14.5C16.4492 14.5 18.4258 12.5234 18.4258 10.0312C18.4258 7.58203 16.4062 5.5625 13.957 5.5625C11.5078 5.5625 9.53125 7.58203 9.53125 10.0312C9.48828 12.5234 11.5078 14.5 13.957 14.5ZM13.957 6.9375C15.6758 6.9375 17.0508 8.35547 17.0508 10.0312C17.0508 11.75 15.6758 13.125 13.957 13.125C12.2812 13.125 10.8633 11.75 10.8633 10.0312C10.8633 8.35547 12.2812 6.9375 13.957 6.9375ZM16.1055 15.875H11.8516C8.45703 15.875 5.75 18.4531 5.75 21.6328C5.75 22.2773 6.26562 22.75 6.95312 22.75H21.0039C21.6914 22.75 22.25 22.2773 22.25 21.6328C22.25 18.4531 19.5 15.875 16.1055 15.875ZM7.125 21.375C7.25391 19.0977 9.31641 17.25 11.8086 17.25H16.1055C18.6406 17.25 20.7031 19.0977 20.832 21.375H7.125ZM22.25 7.625C24.1406 7.625 25.6875 6.12109 25.6875 4.1875C25.6875 2.29688 24.1406 0.75 22.25 0.75C20.3164 0.75 18.8125 2.29688 18.8125 4.1875C18.8125 6.12109 20.3164 7.625 22.25 7.625ZM22.25 2.125C23.3672 2.125 24.3125 3.07031 24.3125 4.1875C24.3125 5.34766 23.3672 6.25 22.25 6.25C21.0898 6.25 20.1875 5.34766 20.1875 4.1875C20.1875 3.07031 21.0898 2.125 22.25 2.125ZM5.75 7.625C7.64062 7.625 9.1875 6.12109 9.1875 4.1875C9.1875 2.29688 7.64062 0.75 5.75 0.75C3.81641 0.75 2.3125 2.29688 2.3125 4.1875C2.3125 6.12109 3.81641 7.625 5.75 7.625ZM5.75 2.125C6.86719 2.125 7.8125 3.07031 7.8125 4.1875C7.8125 5.34766 6.86719 6.25 5.75 6.25C4.58984 6.25 3.6875 5.34766 3.6875 4.1875C3.6875 3.07031 4.58984 2.125 5.75 2.125ZM24.3555 9H21.5625C21.0469 9 20.5742 9.12891 20.1445 9.34375C19.8008 9.51562 19.6719 9.90234 19.8008 10.2461C19.9727 10.5898 20.4023 10.7617 20.7461 10.5898C21.0039 10.4609 21.2617 10.375 21.5625 10.375H24.3555C25.4297 10.375 26.375 11.3633 26.375 12.5664V13.125C26.375 13.5117 26.6758 13.8125 27.0625 13.8125C27.4062 13.8125 27.75 13.5117 27.75 13.125V12.5664C27.75 10.6328 26.2031 9 24.3555 9ZM7.21094 10.5898C7.55469 10.7617 7.98438 10.5898 8.15625 10.2461C8.28516 9.90234 8.15625 9.51562 7.8125 9.34375C7.38281 9.12891 6.91016 9 6.4375 9H3.60156C1.75391 9 0.25 10.6328 0.25 12.5664V13.125C0.25 13.5117 0.550781 13.8125 0.9375 13.8125C1.28125 13.8125 1.625 13.5117 1.625 13.125V12.5664C1.625 11.3633 2.52734 10.375 3.60156 10.375H6.4375C6.69531 10.375 6.95312 10.4609 7.21094 10.5898Z" fill="white"/>
</svg>
