<svg width="25" height="18" viewBox="0 0 25 18" fill="none" xmlns="http://www.w3.org/2000/svg">
<path d="M1.25 2.5V12.5C1.25 13.2031 1.79688 13.75 2.5 13.75H13.2031L12.8906 15H2.5C1.09375 15 0 13.9062 0 12.5V2.5C0 1.13281 1.09375 0 2.5 0H20C21.3672 0 22.5 1.13281 22.5 2.5V5C22.0703 5 21.6406 5.07812 21.25 5.23438V2.5C21.25 1.83594 20.6641 1.25 20 1.25H2.5C1.79688 1.25 1.25 1.83594 1.25 2.5ZM14.375 8.75C14.6875 8.75 15 9.0625 15 9.375C15 9.72656 14.6875 10 14.375 10H4.375C4.02344 10 3.75 9.72656 3.75 9.375C3.75 9.0625 4.02344 8.75 4.375 8.75H14.375ZM3.75 5.625C3.75 5.3125 4.02344 5 4.375 5H18.125C18.4375 5 18.75 5.3125 18.75 5.625C18.75 5.97656 18.4375 6.25 18.125 6.25H4.375C4.02344 6.25 3.75 5.97656 3.75 5.625ZM20.9766 6.95312C21.7188 6.21094 22.8906 6.21094 23.6328 6.95312L24.2969 7.61719C25.0391 8.35938 25.0391 9.53125 24.2969 10.2734L18.3203 16.2891C18.0469 16.5234 17.7734 16.6797 17.4219 16.7578L14.4922 17.5C14.2969 17.5391 14.0625 17.5 13.9062 17.3438C13.75 17.1875 13.7109 16.9531 13.75 16.7578L14.4922 13.8281C14.5703 13.4766 14.7266 13.2031 14.9609 12.9688L20.9766 6.95312ZM22.7344 7.8125C22.5 7.57812 22.1094 7.57812 21.875 7.8125L20.8984 8.78906L22.4609 10.3516L23.4375 9.375C23.6719 9.14062 23.6719 8.75 23.4375 8.51562L22.7344 7.8125ZM15.7031 14.1406L15.1953 16.0547L17.1484 15.5469C17.2266 15.5469 17.3438 15.4688 17.4219 15.3906L21.5625 11.25L20 9.6875L15.8594 13.8281C15.7812 13.9062 15.7031 14.0234 15.7031 14.1406Z" fill="#AACD86"/>
</svg>
