<svg width="100" height="33" viewBox="0 0 100 33" fill="none" xmlns="http://www.w3.org/2000/svg">
<path d="M31.6681 5.19281V24.7207H47.4064L44.356 27.617H28.7798V7.79653L31.6681 5.19281ZM78.0725 24.7207H92.9266C94.3708 24.7207 95.4465 24.4135 96.1244 23.7845C96.8022 23.1556 97.1412 22.2048 97.1412 20.9322C97.1412 19.5425 96.7875 18.5625 96.0654 18.0213C95.7265 17.8018 95.2991 17.6409 94.7686 17.5239C94.2381 17.4069 93.5897 17.3484 92.8235 17.3484H78.0872V24.7207H78.0725ZM78.0725 14.4667H91.9982C93.3982 14.4667 94.3708 14.262 94.8865 13.867C95.6676 13.4721 96.0654 12.6237 96.0654 11.3218C96.0654 10.2101 95.7265 9.40557 95.0339 8.89361C94.3413 8.38164 93.3245 8.13297 91.9688 8.13297H78.0872V14.4667H78.0725ZM91.0698 5.19281C96.3012 5.19281 98.9243 7.10903 98.9243 10.9415C98.9243 13.1941 98.379 14.7593 97.2885 15.6516C99.0864 16.5292 100 18.2846 100 20.9322C100 22.1609 99.8232 23.2287 99.4842 24.121C99.1453 25.0279 98.5853 25.7446 97.819 26.2859C97.2001 26.754 96.4191 27.0904 95.4612 27.3098C94.5034 27.5292 93.3834 27.6316 92.1014 27.6316H75.5084H75.1842V5.19281H75.5084H91.0698ZM53.2714 15.3298H65.3699C66.8435 15.3298 67.9193 15.1835 68.6118 14.8617V14.8909C69.0834 14.6569 69.4371 14.3058 69.6434 13.867C69.8644 13.4135 69.9676 12.887 69.9676 12.2726V11.1755C69.9676 10.5612 69.8644 10.0346 69.6434 9.62499C69.4371 9.20079 69.0834 8.86435 68.6118 8.63031C68.2582 8.4694 67.8161 8.33776 67.2856 8.24999C66.7551 8.17685 66.1214 8.11834 65.3551 8.11834H53.2567V15.3298H53.2714ZM65.473 5.19281C66.7993 5.19281 67.9635 5.32446 68.936 5.58776C69.9086 5.85106 70.6897 6.246 71.2644 6.78723C71.8096 7.34308 72.237 8.07446 72.5464 9.01063C72.8559 9.9468 73.018 11.0731 73.018 12.4042C73.018 16.3244 70.5128 18.2846 65.4878 18.2846H53.2862V24.3989L50.3242 27.7194V18.4455V18.2846H50.3095C50.3095 18.2846 50.3095 18.2846 50.3242 18.2846V5.19281H65.473ZM0 9.28855V23.2872L11.7448 32.5758L23.4895 23.2872V9.28855L11.7448 18.5771V0L0 9.28855Z" fill="white"/>
</svg>
