<svg width="16" height="17" viewBox="0 0 16 17" fill="none" xmlns="http://www.w3.org/2000/svg">
<path d="M15.875 1.25391C15.875 1.00781 15.7695 0.796875 15.5938 0.621094C15.418 0.480469 15.207 0.375 14.9961 0.375H1.00391C0.722656 0.375 0.511719 0.480469 0.371094 0.621094C0.195312 0.796875 0.125 1.00781 0.125 1.25391V15.2461C0.125 15.4922 0.195312 15.7031 0.371094 15.8789C0.511719 16.0547 0.722656 16.125 1.00391 16.125H8.52734V10.0078H6.48828V7.65234H8.52734V5.89453C8.52734 4.91016 8.80859 4.13672 9.37109 3.57422C9.93359 3.04688 10.6719 2.76562 11.5859 2.76562C12.2891 2.76562 12.9219 2.80078 13.4141 2.83594V4.98047H12.1484C11.6914 4.98047 11.375 5.08594 11.1992 5.29688C11.0586 5.47266 10.9883 5.75391 10.9883 6.14062V7.65234H13.3438L13.0273 10.0078H10.9883V16.125H14.9961C15.2422 16.125 15.4531 16.0547 15.6289 15.8789C15.7695 15.7031 15.875 15.4922 15.875 15.2461V1.25391Z" fill="#E3E3E3"/>
</svg>
